<?xml version="1.0" standalone="yes"?>
<svg xmlns="http://www.w3.org/2000/svg" width="368" height="186">
<path style="fill:#f8f8f8; stroke:none;" d="M0 3L2.05556 2.41667L4 2.11111L5 2.11111L7 2.38889L8 2.61111L10 2.88889L11 2.91666L13 2.83333L14 2.77777L16 2.86111L17 2.94444L19 3L20 3L22 3L25 3L26 3L28 2.91667L30 2.69444L31 2.61111L32 2.61111L33 2.69444L35 2.91667L37 3L39 3L40 3L42 2.91667L43 2.80556L45 2.61111L46 2.61111L48 2.80556L49 2.91667L51 2.91667L53 2.61111L54 2.38889L56 2.08333L57 2.02777L59 2L61 2L63 2.08333L65 2.36111L66 2.52779L68 2.61111L70 2.61111L71 2.69444L73 2.91667L74 2.97223L76 3L78 3L86 3L110 3L142 3L153 3L156 3L158 3L160 3.08333L162 3.36111L163 3.52779L164 3.55556L165 3.52779L166 3.36111L168 3.08333L169 3.05556L171 3.19444L173 3.38889L174 3.38889L175 3.30556L177 3.08333L178 3.02777L179 3L180 3L182 3L189 3L196 3L198 3L199 3L201 3.08333L203 3.36111L204 3.52779L205 3.55556L206 3.52779L208 3.22223L209 3.08333L211 3L212 3L214 3L217 3L218 3L220 3.08333L221 3.22223L223 3.61111L224 3.77777L226 3.91666L227 3.86111L229 3.75L230 3.75L232 3.55556L233 3.36111L235 3.08333L236 3.02777L238 3L240 3L244 3L246 3L248 3.08333L250 3.38889L251 3.61111L253 3.91667L255 4L257 4L262 4L276 4L318 4L326 4L328 4L330 4.02777L331 4.08333L333 4.38889L334 4.61111L336 4.88889L337 4.88889L339 4.61111L340 4.38889L342 4.08333L343 4.05556L344 4.08333L345.972 4.33333L347.778 4.58334L348.611 4.63889L349.389 4.66667L351.083 4.72223L353 4.86111L354 4.94444L356 5L357 5L359 5L365 5L365 7.05556L364.972 8.05556L364.917 9L364.639 11L364.472 12L364.389 14L364.389 16L364.306 17L364.083 19L364.028 20L364 21L364 22L364 24L364 27L364 28L364.056 30L364.139 31L364.167 32L364.25 33L364.222 34L364.278 35L364.25 36L364.306 37L364.306 39L364.278 41L364.444 43L364.639 44L364.917 46L364.972 47L365 48L365 50L365 53L365 54L364.917 56L364.694 58L364.583 59L364.472 61L364.444 62L364.361 63L364.25 65L364.25 66L364.139 68L364.083 69L364.222 71L364.389 72L364.611 73L364.889 75L364.889 76L364.806 77L364.528 78.9167L364.389 79.7778L364.222 81.3889L364.194 83L364.278 84.6111L364.306 85.3889L364.361 87.0833L364.417 88.0278L364.528 89L364.806 91L364.972 93L365 95L365 98L365 107L365 115L365 118L364.972 120L364.917 121L364.611 123L364.389 124L364.083 126L364.028 127L364.056 128.972L364.139 129.917L364.167 130.778L364.222 131.611L364.167 132.389L364.139 133.222L364.056 134.083L364 136L364.056 137.972L364.139 138.917L364.167 139.778L364.222 140.611L364.167 141.389L364.139 143.083L364.389 145L364.778 147L364.917 148L365 150L365 151L365 154L365 156L364.972 157L364.917 158L364.639 160L364.444 161L364.25 163L364.278 164L364.25 165L364.444 167L364.639 168L364.917 170L364.972 171L365 172L365 174L365 176L364.972 177L364.917 178L364.583 180L364.306 181L363.667 182.944L363.444 183.5L363 185L361.5 184.667L359.944 184.611L358 184.806L357 184.917L355 185L354 185L352 185L348 185L346 185L344 184.972L343 184.917L341 184.639L339 184.444L338 184.472L337 184.639L335 184.889L334 184.889L332 184.611L330 184.306L329 184.278L327 184.389L326 184.389L324 184.194L323 184.083L321 184L320 184L318 184L313 184L308 184L306 184L305 184L304 184.028L303 184.083L301 184.306L300 184.389L299 184.389L298 184.306L296 184.083L294 184L292 184L287 184L274 184L195 184L169 184L160 184L157 184L156 184L154 184.083L152 184.389L151 184.611L149 184.917L148 184.944L147 184.917L145 184.611L144 184.417L142 184.306L140 184.611L138 184.889L137 184.889L136 184.778L134 184.417L132 184.306L130 184.611L129 184.778L128 184.917L126 185L124 184.972L123 184.917L121 184.611L120 184.389L118 184.083L117 184.028L115 184L111 184L100 184L32 184L15 184L11 184L9 184L7 184L6 183.972L5 183.889L4 183.694L2.05556 182.972L1.5 182.667L0 182L0 186L368 186L368 0L87 0L21 0L11 0L8 0L6 0L4 0L3.02778 0.027771L2.11111 0.111115L0.722222 0.666672L0.111111 1.61111L0 3z"/>
<path style="fill:#303030; stroke:none;" d="M1 2L0 3L0 137L0 159L0 166L0 169L0 170L0 172L0.0277778 173L0.0555556 173.972L0.166667 175.778L0.222222 176.611L0.138889 178.222L0.0833333 179.083L0.333333 180.972L0.722222 181.889L1.33333 182.667L3.02778 183.667L4 183.889L5 183.972L6 184L8 184L10 184L14 184L25 184L94 184L108 184L113 184L114 184L116 184.028L117 184.083L119 184.389L120 184.611L122 184.917L123 184.972L125 185L127 185L129 184.917L130 184.806L132 184.611L133 184.611L135 184.806L137 184.972L139 184.917L141 184.694L142 184.611L143 184.611L144 184.694L146 184.917L148 185L150 184.917L152 184.611L153 184.389L155 184.083L157 184L159 184L164 184L177 184L218 184L268 184L285 184L291 184L292 184L294 184.028L295 184.083L297 184.389L299 184.694L300 184.694L301 184.583L303 184.222L305 184.028L307 184L309 184L316 184L318 184L319 184L320 184L322 184.083L323 184.222L324 184.389L326 184.694L327 184.722L329 184.611L330 184.611L332 184.806L334 184.972L336 184.944L338 184.833L339 184.778L340 184.833L342 184.944L344 185L346 185L350 185L354 185L356 185L357.972 184.944L359.778 184.833L360.556 184.778L361.333 184.833L363 185L363.806 183.5L363.972 182.944L364.583 181L364.917 179L365 177L365 175L365 173L365 171L364.944 169L364.833 167L364.75 166L364.722 164L364.778 163L364.75 162L364.833 161L364.944 159L364.972 158L365 157L365 156L365 153L365 150L364.972 148L364.917 147L364.639 145L364.472 144L364.389 142L364.389 140L364.194 138L364.083 137L364.083 135L364.194 134L364.389 132L364.389 131L364.194 129L364.111 127L364.389 125L364.611 124L364.917 122L365 120L365 119L365 116L365 108L365 98L365 95L365 93L364.944 91.0278L364.861 90.0833L364.833 89.2222L364.75 88.3889L364.778 87.6389L364.75 86.1389L364.667 85.3611L364.639 84.6111L364.528 82.9167L364.556 81.0833L364.639 80.2222L364.694 79.3889L364.806 78.6111L364.861 77.7778L364.944 76.9167L364.972 75L364.917 74L364.611 72L364.306 70L364.389 68L364.556 67L364.75 65L364.75 64L364.806 63L364.806 61.0833L364.778 59.3889L364.833 58.6111L364.944 56.9167L365 55L365 54L365 51L365 48L365 47L364.944 45L364.833 43L364.75 42L364.722 40.0833L364.778 39.2222L364.722 38.3889L364.722 36.7778L364.722 34.9722L364.75 34L364.639 33L364.556 32L364.361 31L364.083 29L364 27L364 26L364 24L364 22L364.083 20L364.222 19L364.389 18L364.722 16L364.806 14L364.778 13L364.861 11L364.944 10L365 8.05556L365 7.05556L365 5L359 5L357 5L356 4.97223L355 4.91667L353 4.63889L352.028 4.44444L350.222 4.27777L349.417 4.30556L348.694 4.30556L347.306 4.27777L346.583 4.19444L344.917 4.05556L343.972 4.02777L343 4L341 4.08333L340 4.22223L339 4.38889L337 4.69444L335 4.58333L333 4.22223L332 4.08333L330 4L328 4L324 4L312 4L275 4L262 4L258 4L256 4L254 3.91667L252 3.61111L251 3.38889L249 3.08333L247 3L245 3L241 3L238 3L236 3L234 3.05556L233 3.13889L232 3.16667L231 3.25L230 3.25L228 3.44444L227 3.61111L225 3.69444L223 3.38889L221 3.08333L220 3.02777L218 3L215 3L212 3L210 3L208 3.05556L207 3.13889L205 3.22223L204 3.16667L202 3.05556L200 3L199 3L196 3L189 3L182 3L179 3L178 3L176.028 3.05556L174.222 3.16667L173.389 3.22223L172.611 3.16667L171.778 3.13889L170.917 3.05556L169 3L167 3.05556L166 3.13889L165 3.16667L164 3.22223L163 3.16667L161 3.05556L159 3L157 3L154 3L143 3L112 3L88 3L80 3L77 3L76 3L74 2.91667L73 2.77777L72 2.61111L70 2.27779L68 2.19444L67 2.22223L65 2.13889L64 2.05556L62 2L60 2L58 2L56 2.02777L55 2.08333L53 2.38889L52 2.61111L50 2.83333L48 2.61111L47 2.41667L45 2.30556L43 2.61111L41 2.91667L39 3L37 2.97223L35 2.77777L33 2.41667L32 2.30556L31 2.30556L29 2.61111L27 2.91667L25 3L23 3L21 3L20 3L18 2.91667L16 2.63889L15 2.47221L13 2.47221L12 2.61111L10 2.69444L8 2.38889L6 2.08333L4.05556 2L3.05556 2L1 2z"/>
<path style="fill:#f8f8f8; stroke:none;" d="M110 16L111.5 15.5L112.056 15.1667L113.056 14.75L115 13.75L116 13.1667L118 12.0556L119.944 11.0556L120.5 10.8333L122 10L121.222 9.27779L120.694 9.27779L119.889 9.13889L118 9.47223L116 10.25L115 10.7778L114 11.25L112.111 12.4722L111.333 13.1944L110.361 14.5278L110 16M127 9L125.5 9.97223L124.944 10.1667L123.944 10.6389L122 11.3889L121 11.8333L120 12.2778L119 12.8333L118 13.3889L116 14.6111L114 15.75L113 16.2222L112 16.7778L111 17.2222L110 17.7778L109 18.2222L108 18.7778L107 19.25L105.028 20.4722L103.306 22.0278L102.778 22.5278L102 24L103.5 23.8889L104.056 23.6944L105.056 23.3889L107 22.5L108 22L110 20.9444L111 20.3611L113 19.25L114 18.75L116 17.6111L118 16.3889L120 15.25L121 14.7778L122 14.2222L123 13.7778L124.972 12.75L126.639 11.5556L127.222 10.8611L127.611 9.75L127 9M97 30L97 45L99.0556 45.5556L101 45.6944L102 45.5833L104 45.2222L105 45.0833L107 45.0833L108 45.2222L110 45.6111L112 46.0278L113 46.3056L114 46.6944L115 47.2222L117 48.2778L118.917 48.75L120.611 48.7778L122.222 48.8611L123.083 48.9444L125 49L127 48.9167L129 48.6389L130 48.4722L132 48.4722L134 48.6944L135 48.7222L137 48.6111L138 48.6111L139 48.6944L141 48.9167L143 49L144 49L146 49L151 49L167 49L177 49L179 49L180 49L182 48.9167L184 48.5278L186 47.8333L187 47.4722L189 47.1111L191 47.2222L192 47.3889L193 47.6111L195 47.9167L196 47.9722L197.944 48L200 48L200.778 46.5833L202.111 45.4444L204 44.5L206 44.0833L208 44L210 44L212 44L217 44L259 44L258.417 46.0556L258.083 47.9444L258.028 48.9444L258 51L259.5 52L260.056 52.25L262 53.3889L263 54.0278L265 55.3056L265.944 55.8889L266.944 56.3611L267.5 56.6667L269 57L269 59.0556L269 60.0556L269.028 61L269.056 61.9444L269.25 62.9444L269.278 63.5L270 65L271.389 64.2222L272.333 62.8889L272.889 61L272.972 60L273 59L273 57L273 55L273 54L272.917 52L272.778 51L272.389 49L272.194 48L271.722 46L270.889 44L270.278 43L269.583 42L267.917 40L266.972 39L265 37L263 35.0833L261 33.3889L260 32.6111L259 31.7778L258 30.9444L257 30.0556L255 28.3889L254 27.6111L253 26.8056L251 25.1944L250 24.3889L249 23.6111L248 22.8056L246 21.1944L245 20.4167L243.028 19L242.083 18.3333L241.222 17.6944L239.611 16.5278L238.778 16L236.972 15L236 14.5278L235 14.0556L234 13.6389L232 12.8333L231 12.4722L229 12.0556L228 11.9444L227 11.7778L226 11.6111L225 11.3889L223 11.0833L222 11.0278L221 11L219 10.9722L218 10.9167L216 10.6111L215 10.3889L213 10.0833L212 10.0278L210 9.97223L208 9.77777L206 9.38889L204 9.08333L203 9.02777L201 9L197 9L185 9L176 9L174 9L173 9L171 9.02777L170 9.08333L168 9.38889L167 9.61111L165 9.91667L164 9.97223L162 10L158 10L146 10L143 10L141 10L139 10.0278L138 10.1111L137 10.3056L136 10.6111L134 11.4722L133 11.9444L131 12.8333L130 13.25L128 14.2222L127 14.7778L126 15.2222L124 16.25L123 16.8333L121 17.9444L120 18.4722L119 19L118 19.5L116 20.5L115 21L114 21.5278L113 22.0556L111 23.1944L110 23.8056L109 24.3611L108 24.9444L107 25.4722L106 26L104 27L102 27.9444L101 28.3611L100.056 28.8056L99.0556 29.1944L98.5 29.5L97 30M85 10L83 12L83 14L84.4167 15.5L85.6667 17.0556L86.3611 18L87.8611 19.8889L89.3333 21.2778L89.75 21.6389L91 22L90.9167 20.5L90.5278 18.9444L90.1667 18L89.3889 16L88.5833 14L87.5556 12.1111L86.4167 10.7778L85 10M97 10L96.2778 11.4444L96.25 12L96 14L97.2222 13.6389L98.1111 12.7222L98.7222 11.4722L99 10L97 10M104 10L102.75 11.5L101.583 13.0556L100.861 14L100.167 15L99.4444 16L98.2778 18L97.8611 18.9444L97.2778 20.5L97 22L98.4167 21.6389L99.6389 20.6667L101 18.9722L101.694 18L102.389 17L103.833 15L104.528 14L105.056 13.0556L105.722 11.5L106 10L104 10M255 10L255 12L257 12L257 10L255 10M43 11L42.0278 12.5L41.8611 13.0556L41.4444 14L41.0833 15.5L41 17L42.4722 16.2222L43.7222 14.8889L44.2778 14.0278L44.8889 12.5L45 11L43 11M89 11L89 12L90 14L90.7222 13.2778L90.75 12.75L91 11L89 11M36 12L35.2222 13.5L34.6944 14.0556L33.9167 15.0556L33.0556 16L31.5 18L30.9444 18.9444L30.2778 20.5L30 22L31.4167 21.6389L31.8333 21.2778L32.6667 20.6667L34.1944 18.9722L35.7778 17L36.5 16L37.0556 15.0556L37.7222 13.5L38 12L36 12M245 12L245.778 13.25L246.306 13.6667L248.028 15.2222L249 16.0833L250 17.0278L251.917 19L253.611 21L254.361 22L255.139 23L256.583 24.8889L257.333 25.6944L257.75 26.2222L259 27L259.444 25.5L259.278 24.9444L259.083 23.9444L258.222 22L257.778 21L257.222 20L256.75 19L256.167 18L255.056 16.0556L254.694 15.5L254 14L252.5 13.9722L250.944 13.6944L249 13L248.056 12.6111L247.056 12.3056L246.5 12.1111L245 12M266 12L266.083 14.0556L266.25 15.0556L266.5 16L267.417 18L268.028 18.9722L269.361 20.6667L270.583 21.6389L272 22L271.917 20.5L271.778 19.9444L271.389 18L271 16L270.583 14.0556L270 12L266 12M289 12L289.361 13.1667L289.722 13.4167L290.333 13.9444L292.028 14.5833L292.944 14.7778L294.5 14.9722L296 15L295.639 13.8333L295.278 13.5833L294.667 13.0556L292.972 12.4167L292.056 12.2222L290.5 12.0278L289 12M257 13L257.083 14.5L257.5 16.0556L258.417 18L259.611 20L260.75 22L261.25 23L261.833 24L262.944 26L264 28L265.056 30L266.194 32L266.833 33L267.472 34L269.083 35.9167L270.944 37.5L272.5 38.4722L274 39L273.917 37.5L273.778 36.9444L273.611 35.9444L273.361 35L273.139 34L272.861 33L272.361 31L272.139 30L271.528 28L270.528 26L269.833 25L268.361 23L267.611 22L265.944 20L265.056 19L263.389 17.0278L262.611 16.0833L260.917 14.5L260.028 13.9444L258.5 13.2778L257 13M63 14L63 21L63 23L62.9722 24L62.9167 25L62.6111 26.9444L62.25 28.5L62 30L63.5 29.8889L64.9722 29.2778L66.5833 27.8889L67.8889 26L68.3611 25.0556L68.8889 23.5L69 22L67.7778 22.3611L66.8611 23.2778L66.5278 23.6111L66 25L65.2778 23.5L65.25 22.9444L65.0833 21.9444L65.2222 20L65.3889 19L65.7778 17.0556L65.9722 15.5L66 14L63 14M280 14L280 18L281.472 18.5278L282.806 19.5L283.528 20.25L284.833 22.0278L285.472 22.9722L286.25 23.9167L287.056 24.7778L288.778 26.3889L289.611 27.2222L291.222 28.9167L292.972 30.2778L294.5 30.8889L296 31L295.222 29.5L294.694 28.9444L293.889 27.9444L292.972 27L292 26L290.083 24L289.222 23.0278L287.611 21.2222L286 19.6111L284.389 17.9167L282.833 16.1111L281.972 15.3056L281.472 14.7778L280 14M23 16L22 17L22 19L24 21L25 21L24.9722 19.5L24.7222 18.0556L24.3333 17.3056L24.1389 16.7778L23 16M304 16L304.361 17.3889L305.278 18.3333L306.528 18.8889L308 19L308 17L307 16L304 16M45 17L43.8333 18.5L43.5833 19.0556L43.0278 20.0556L42.1111 22L41.6111 23L41.0833 24L40.3056 26L40.0278 28L40 30L40 31L40 34L40 37L40 39L39.9722 41L39.9167 42L39.6111 43.9444L39.25 45.5L39 47L40.5 48.5L42.0556 49.9722L43.9167 51.5833L45.5556 52.8889L46.3333 53.3611L46.75 53.6667L48 54L48.5833 51.9444L48.75 50.9444L48.8333 50L48.6111 48L48.3889 47L48.0833 45L48.0278 44L48 42L48 38L48 27L48 24L48 23L47.9722 22L47.8889 21L47.3333 19.1111L46.3889 17.7778L45 17M80 17L80.3611 18.5L81.3333 20.0556L83 22L83.9167 23L85.6111 24.9722L87.1667 26.6667L88.5278 27.6389L90 28L89.6389 26.5L89.2778 25.9444L88.6944 24.9444L87.9722 24L86.3889 22L85.6111 21L83.9167 19.1111L83.0278 18.3333L81.5 17.3611L80 17M55 18L54 19L53 21L53.5833 23.0556L53.7778 24.0556L53.9167 25L54 27L54 29L54 34L54 39L54 41L53.9722 42L53.9167 43L53.6111 45L53.3889 46L53.0833 48L53.0278 49L53 50L53 52L53 54L53.0278 55L53.0556 55.9444L53.25 56.9444L53.2778 57.5L54 59L54.8056 58.2222L54.9722 57.6944L55.5833 55.9722L55.9167 54L56 52L56 51L56 49L56 46L56.0278 44L56.0833 43L56.3889 41L56.7778 39L56.9722 37L57.0278 35L57.0833 34L57.3889 32L57.6111 31L57.9167 29L57.9722 28L58 27L58 25L58 18L55 18M293 19L292 20L292 22L293.417 23.5L293.778 24L294.583 25L296 27L296.806 26.2222L296.972 25.75L297.556 24.4722L298 23L296.917 21.5833L295.778 20.4444L294.972 19.9167L294.472 19.5278L293 19M325 20L325.361 21.4167L325.722 21.8333L326.333 22.6667L328.028 24.1389L329 24.8333L330 25.5556L331.944 26.7222L332.944 27.1667L333.5 27.5L335 28L334.639 26.5L333.667 24.9722L332.889 24.0833L331 22.4167L329 21.1111L328.056 20.6389L326.5 20.1111L325 20M77 21L75.5833 22.5L74.3611 24.0556L73.6944 25L72.3056 27L71.6111 28L70.1389 30L69.3611 31L68.6389 32L67.8611 33L66.3889 35L65.6944 36L64.3056 37.9167L63.6389 38.7222L62.4167 39.9167L61 41L61 55L61 58L61 60L61.0278 61L61.0556 61.9444L61.25 62.9444L61.2778 63.5L62 65L63.5 64.75L65 64.3889L65.5 64.25L67 64L67.5 62.5L67.8333 61.9444L68.25 60.9444L68.75 60L69.1389 59.0556L69.7222 57.5L70 56L75 56L75.2778 54.5L75.5 53.9444L76.5 52.0278L78.0556 50.2222L78.9444 49.3889L80.5 47.8333L81.4722 46.4722L82 45L84.0556 45L85.0556 45L87 44.9167L87.9444 44.7778L88.9444 44.5833L91 44L91.0278 41.9444L91.0833 40.9444L91.3889 39.0556L91.75 37.5L92 36L88.9444 32.9444L88 32L86.0278 30L85.0833 29L83.3889 27L82.6389 26L81.8611 25L81.1944 24.0556L80.4444 23.0556L79 21L77 21M304 21L304.361 22.3889L305.278 23.3333L306.528 23.8889L308 24L308 22L307 21L304 21M316 21L315.75 22.5L315.389 24.0556L315.083 26L315.028 27L314.972 29L314.917 30L314.528 32L314.139 33L313.75 34L313.25 35L312.444 37L312.167 38L311.639 40L311.222 41.9444L311.083 42.5L311 44L312.222 43.6389L313.111 42.6667L313.528 41.8889L314.139 40L314.389 39L315.083 37L316.056 35L316.639 34L317.194 33L318.444 31L319.167 30L320.528 28L321.056 27.0556L321.722 25.5L322 24L320.5 24.3333L320 24.6111L318.5 25.3333L317 26L317.389 24.5L317.5 23.0556L317.111 21.7778L316 21M335 21L335.111 22.4722L335.667 23.75L335.861 24.2222L337 25L337.444 23.5278L337.056 22.2778L336.528 21.7222L336.222 21.3611L335 21M35 22L33.7778 23.5L33.4167 24.0556L32.1944 26L31.6389 27L31.0833 28L30.3056 30L30.0278 32L30 34L30 35L30 37L30 49L32 49L32 46.9444L32.0278 45.9444L32.0833 45L32.3889 43.0556L32.75 41.5L33 40L33.7222 41.5L33.75 42.0556L33.9444 43L33.9722 43.9444L34 46L36 46L36 37L36 35L36 34L36.0278 32L36.0833 31L36.3889 29L36.6111 28L36.9167 26L36.9722 25.0556L37 24.0556L37 22L35 22M279 22L278.444 24.0556L278.306 25.0556L278.417 27L278.611 28L278.917 30L278.972 31L279 33L279 35L279 64L281.056 64.0278L282.056 64.0833L284 64.3889L285 64.6111L286.944 64.9167L287.944 64.9722L290 65L289.583 66.4444L289.25 67.5556L289 69L290.5 69.7222L291.056 69.75L292.056 69.9444L292.944 69.9722L293.944 70L296 70L296 68.5L296.083 66.9444L296.194 66L296.389 64L296.389 63L296.306 62L296.083 60L296.083 58L296.389 56L296.611 55L296.917 53L296.972 52L297 50L297 48L297 47L296.917 45L296.75 44L296.5 43L295.5 41L294 39L292.472 37L291.833 36L291.167 35L289.75 33L288.917 32L287.083 30L285.472 28L284.833 27L283.583 25.0556L282.417 23.5L281 22L279 22M12 23L12.2778 24.5L12.8611 26.0556L13.25 27L13.7778 28L14.75 30L15.1667 31L16.0833 32.8889L16.5833 33.6667L17.6111 34.6389L19 35L18.75 33.5L18.2778 31.9444L17.9167 31L17.4722 30L16.5278 28L16.0833 27L15.7222 26.0556L15.25 24.5L15 23L12 23M22 24L22.1667 25.4167L22.1944 25.8333L22.3889 27.3889L22.6667 29.0833L22.9167 31L22.9722 31.9444L23 32.9444L23 35L25 35L25 32.9444L25 31.9444L24.9444 30.0278L24.8611 29.0833L24.75 27.3889L24.7222 26.6389L24.2778 25.25L23.6944 24.6944L22 24M302 26L302 33L302 35L302 36L302 38L302.028 39L302.111 40L302.639 42L303.722 43.9722L304.361 44.8889L305.167 45.6944L305.583 46.2222L307 47L307.083 45.5L307.222 44.9444L307.389 43.9444L307.611 43L307.917 41L307.972 40L308 38L308 36L308 34L307.972 32L307.917 31L307.611 29.0556L307.25 27.5L307 26L302 26M324 28L323.5 29.5L323.167 30.0556L322.75 31.0556L322.25 32L321.833 33L320.944 35L320.472 36L320 37L319.083 39L318.333 41L317.972 42L317.611 43L316.75 45L316.222 46L315.25 48L314.833 49L314.389 50L313.722 52L313.5 53L313.389 55L313.389 57L313.306 58L313.083 60L313.028 61L313 62L313 64L312.972 66L312.917 67L312.611 69L312.389 70L312.083 72L312.056 73.9444L312.278 75.5L313 77L314.5 76.8333L316.056 76.7778L317 76.8333L319 76.9444L321 77.0833L323 77.4167L324 77.7222L326 78.6111L328 79.8611L329 80.5278L331 81.5L332 81.75L333 81.9167L334.944 82L337 82L337 70L337 67L337 66L337.028 64L337.083 63L337.389 61L337.611 60L337.917 58L337.944 56L337.861 55L337.778 53L337.861 51L337.944 50L337.972 49L338.083 47L338.222 46L338.611 44L338.889 42L338.889 41L338.5 39.0278L337.528 37.2222L336.139 35.6944L335.361 35L333.778 33.6667L332.056 32.3333L330.389 31L329.611 30.3333L327.917 29.1111L327.028 28.6389L325.5 28.1111L324 28M346 28L345 29L345 31L346.5 32.4167L347.028 32.8333L347.972 33.6389L349.556 34.8889L350.333 35.3611L350.75 35.6667L352 36L351.889 34.5833L351.306 33.3333L350.139 31.7778L349.472 30.9722L348.528 29.5L348 28L346 28M336 30L336.361 31.4722L336.722 31.9444L337.278 32.7222L338.528 33.6389L340 34L339.75 32.5556L339.417 31.4444L339 30L336 30M10 37L9.97222 38.5L9.77778 40.0556L9.38889 42L9.08333 44L9.02778 45L9 47L9 48L9 51L9 55L9 57L9.08333 59L9.22222 59.9444L9.41667 60.9444L10 63L11.5 62.8889L13.0556 62.3056L14.9167 61.1111L16.6111 59.6111L17.3611 58.7778L18.1111 57.9167L19.2778 56L19.5833 55L19.6389 54L19.1667 52L18.8056 51L18.3889 50L17.6111 48L17.1944 47L16.8056 46L16.3889 45L15.6944 43L15.1389 41L14.8611 40.0556L14.6111 39.0556L14 37L10 37M344 37L344.361 38.5L345.333 40.0556L347.028 42L348.944 43.8889L349.944 44.6944L350.5 45.2222L352 46L351.889 44.5L351.361 42.9722L350.889 42.0833L349.667 40.3889L349.056 39.6667L348.056 38.4167L347 37L344 37M21 39L21 42.0556L21 43L21.0278 45L21.2222 47L21.4167 47.9722L22.0556 49.6667L22.5833 50.2778L22.8333 50.6389L24 51L24.0833 49.5L24.1944 48.9444L24.3333 47.9722L24.6111 46.2222L24.7222 44.6111L24.5278 42.9444L24.25 42.0556L23.4167 40.5L22.3889 39.5278L21 39M344 46L344 48.0556L344.028 49.0556L344.083 50L344.389 52L344.611 53L344.917 55L344.972 57L344.917 58L344.611 60L344.389 61L344.083 63L344 65L344 67L344 68L343.972 70L343.917 71L343.611 73L343.389 74L343.083 76L343.028 77L343 79L343 79.9444L343 83L345.056 83L347 82.9722L348 82.8889L348.972 82.6667L350.667 81.6667L351.278 80.8889L351.667 79.9722L351.972 78L352 76L352 73L352 50L350.583 50.1111L350.167 50.3056L348.667 51.0278L348.25 51.3333L347 52L347 46L344 46M301 49L300.333 50.5L300.389 51.0556L300.222 52.0556L300.25 54L300.444 56L300.639 57L300.917 59L301 61L300.917 63L300.611 65L300.222 66.9444L300.028 68.5L300 70L303 70L303 71.5L303.111 73.0278L303.333 73.8889L304.278 75.2778L305.528 75.8889L307 76L307 72.9444L307 72L306.972 71L306.861 69L306.833 68L306.778 67L306.833 66L306.861 65L307 63L307.083 62L307.389 60L307.611 59L307.806 57L307.639 56L307.278 55L305.917 53L305.083 52.0556L304.306 51.0556L303.778 50.5L303 49L301 49M40 54L39.9167 55.5L39.8056 56.0556L39.6667 57.0556L39.3889 59L39.3056 60L39.1944 61L39.0556 63L39.0278 64L39 65L39 66L39 69L39 77L39 85L39 87L39 88L38.9167 90L38.7778 91L38.5833 92L38.3056 93L37.6111 95L36.75 97L36.25 98L35.4444 100L35.1667 101L34.8611 102L34.3056 104L33.6111 106L32.8333 108L32.4722 109L32.0833 111L32 113L32 115L32 116L32 118L32 123L38 123L40 123L41 123L43 122.889L43.9722 122.667L44.8889 122.278L45.6667 121.667L46.2778 120.889L46.8889 119L47 117L47 116L47 115L47 112L47 105L47 97L47 94L46.9722 92L46.9167 91L46.6111 89L46.3056 87L46.3889 85L46.5278 84L46.5556 82L46.4444 81L46.4722 79L46.6389 78L46.9167 76L46.9722 75L46.9444 73L46.8611 72L46.8333 71L46.7778 70L46.8333 69L46.8611 68L46.9722 66L47 65L47 63L47 59L45.5278 58.6389L44.1944 57.6667L43.4722 56.9167L42.8333 56.0833L41.5833 54.7222L41.2222 54.3611L40 54M128 56L127 57L126.889 58.4722L126.389 59.8333L125.611 61.3333L125.306 62.1667L125.111 62.5833L125 64L136 64L135 65L133 66L133.667 67.0833L134.389 68.2222L134.889 69.5278L135 71L133.5 71L132.944 70.9722L131 70.6944L130 70.3889L128.056 69.6111L127.5 69.3333L126 69L126 70L125 72L123.778 70.5L122.806 68.9444L122.25 68L121.806 67.0556L121.222 66.0556L121 65.5L120 64L108 64L106 64L105 64L104 63.9722L103 63.8889L102.028 63.6667L101.111 63.2778L99.7222 61.9444L99.3611 61.4722L99 60L111 60L111 57L106 57L104 57L103 56.9722L102 56.9167L100 56.6111L99.0556 56.3889L98.0556 56.2222L97.5 56.0833L96 56L96 76L96 82L96 84L96.0278 85L96.0833 86L96.3889 88L96.6111 88.9444L96.7778 89.9444L96.9167 90.5L97 92L98.5 92.5L99.0556 92.8333L100.056 93.2778L101 93.8333L102 94.3889L104 95.6111L106 96.8056L107 97.3889L109 98.6667L110 99.3333L112 100.667L113 101.333L114 101.972L115 102.611L116 103.194L117 103.806L119 104.944L120 105.444L121 105.944L122.889 106.861L123.694 107.444L124.222 107.778L125 109L123.5 108.5L122.944 108.194L121 107.389L119 106.611L117 105.75L116 105.25L114 104.389L112 103.583L110 102.583L109 101.972L107 100.667L105 99.3889L104 98.8333L102 97.8611L101 97.4722L100 97.25L99.0556 97.0833L97.5 97L96 97L96 103L96 105L96 106L96.0556 107.972L96.1667 109.778L96.2222 110.611L96.1667 111.389L96.0556 113.083L96.0278 114.028L96 115L96 116L96.0833 118L96.2222 119L96.3889 120L96.8611 122L97.1389 123L97.6111 125L98.0278 126.917L98.6667 128.5L99.6111 129.472L101 130L101.639 128.5L101.528 128L101.528 127L101 125L102.5 124.333L103.056 124.028L104.056 123.611L106 123.111L108 123.083L109 123.194L110.889 123.333L111.694 123.111L112.222 123.056L113 122L114.5 123.139L116.056 123.722L117 123.889L118 123.972L119 124L121 124L123 124.028L124 124.111L125 124.306L126.944 125.028L127.5 125.333L129 126L129.778 124.583L130.306 124.194L131.111 123.472L132.889 122.778L134.222 122.944L135 124L137 124L137 122L139.056 122.583L140.944 122.917L143 123L143.25 125L143.278 125.556L144 127L144.722 126.222L144.75 125.694L144.944 124.944L144.972 124.028L145 122L146.5 122.25L147.056 122.389L149 122.778L150 122.917L152 123.083L152.944 123.222L153.944 123.417L156 124L156 126L155 127L152.944 126.5L151.111 126.528L149.778 127.028L149 128L150.5 128.722L152.056 128.861L154 128.611L155.944 128.222L156.5 128.083L158 128L158 122L159.444 122.25L160.556 122.583L162 123L162 124L161 126L162.5 126.722L163.056 126.75L164.056 126.944L165 126.972L165.944 127L166.944 127L169 127L169 125L166.944 124.917L165.056 124.583L163 124L164.5 122.944L165.056 122.889L166.056 122.667L168 122.833L169.889 123.306L170.694 123.694L171.917 124.806L172.167 125.25L173 126L173.722 125.278L173.75 124.75L174 123L189 123L189 125L190 126L190.972 125.278L191.167 124.75L192 123L193.5 123.083L194.056 123.222L196 123.528L198 123.556L199 123.472L200.889 123.75L202.222 124.611L203 126L197 126L197.778 127.139L198.306 127.333L199.111 127.722L201 127.972L202.944 127.944L203.944 127.75L204.5 127.722L206 127L205.583 125.556L205.25 124.444L205 123L209 123L210 124L210 128L212 128L212 124L213 123L224 123L228 123L230 123.028L231 123.083L233 123.389L235 123.722L236 123.778L238 123.75L239 123.75L241 123.556L242 123.389L243.944 123.361L245.5 123.861L247 125L248.5 124.75L249.056 124.611L250.056 124.389L252 124.167L254 124.389L255 124.611L257 124.917L258 124.972L260 125L262 125L263 125L265 125.028L265.972 125.111L267.778 125.611L269.333 126.389L269.75 126.667L271 127L271 108L271 102L271 100L271 99L271.083 97L271.194 96L271.389 94L271.389 93L271.278 91L271.306 90L271.611 88L271.917 86L271.972 85L272 83L272 80L272 71L270.5 71.0833L269.944 71.2222L268.944 71.3889L268 71.6111L266 71.9167L265 71.9722L263.056 72L261 72L260.75 70.5556L260.417 69.4444L260 68L245 68L242 68L240 68L238 67.9722L237 67.9167L235 67.5278L233 66.8333L232 66.4722L230 66.0833L228 65.9167L227 65.7778L225 65.3889L223.056 65.0833L221 65L222.5 63.9444L224.056 63.6667L225 63.7222L227 63.9167L229 64L230 64.0278L231 64.0833L233 64.3889L234 64.6111L236 64.8889L237.972 64.6667L239.667 63.7222L240.639 62.4722L241 61L239.5 60.2778L238.944 60.25L237.944 60.0556L237 60.0278L236 60L234 60L231 60L229 60L228 60L226 60.0278L225 60.0833L223 60.3889L222 60.6111L221 60.7778L220 60.9444L219 61.0556L217 61.4167L215 62L213 62.6111L212 62.8611L211 63.1389L209 63.6111L207 64L206 64.1944L204 64.6944L202 65.3889L201 65.8056L199 66.5L198 66.6667L197.056 66.6944L196.056 66.5556L194 66L195.417 64.5L195.833 63.9444L196.639 62.9444L197.889 61.0556L198.361 60.0556L198.667 59.5L199 58L197.5 57.25L196.944 57.1667L195.944 56.8333L194 56.3889L192.056 56.0833L191.5 56.0278L190 56L189 57L189 59L178 59L175 59L174 59L172 59.0278L171 59.0833L169 59.3889L168 59.6111L166 59.9167L165 59.9722L163 60L162 60L159 60L157 60L155 60.0278L154.056 60.0556L153.056 60.25L152.5 60.2778L151 61L151.778 62.1389L152.306 62.3333L153.111 62.7222L154.028 62.8889L155 62.9722L155.944 63L156.944 63L159 63L157.5 63.7222L156.944 63.75L155.944 63.9444L155 63.9722L153 64.0278L152.056 64.0556L151.056 64.25L150.5 64.2778L149 65L149.111 66.5L149.694 68.0556L150.778 69.9444L151.306 70.9444L151.639 71.5L152 73L150 72.4167L149 72.2222L148.5 72.0833L147 72L146.639 70.6389L145.722 69.9167L145.389 69.6389L144 70L144.25 68.5L144.389 67.9444L144.694 66L144.528 64.0556L144.139 63.0556L143 61L139.944 61L139 61L137 60.9722L136 60.9167L134 60.6111L132.056 60.2222L130.5 60.0278L129 60L129 59L130 57L133.056 57L135 57L137 57.0278L138 57.0833L140 57.3889L141 57.6111L143 57.9167L145 57.9722L145.944 57.9444L146.944 57.75L147.5 57.7222L149 57L149 55L148 54L146.5 54.25L144.944 54.6111L143 54.9167L142 54.9722L141 55L139 55.0278L138 55.0833L136 55.3889L135 55.6111L133 55.9167L132 55.9722L130.056 56L128 56M159 54L159 56L180 56L180 54L159 54M205 54L204.75 55.5L204.611 56L204.25 57.5L204 59L213 59L212.222 58.0278L211.694 57.8889L210.944 57.5L209.5 57.3611L208 58L207.556 56.5278L206.944 55.2778L206.417 54.7222L206.167 54.3611L205 54M222 56L222.778 56.7222L223.306 56.75L224.111 56.9444L225.028 56.9722L227 57L229 57L233 57L233 55L232 54L230.5 54.0833L229.944 54.2222L228 54.6111L226 54.9444L224.056 55.25L223.5 55.2778L222 56z"/>
<path style="fill:#303030; stroke:none;" d="M65 56L64.6667 58L64.5278 58.5556L65 60L66.2222 59.2222L66.5556 58.75L67.4722 57.4722L68 56L65 56z"/>
<path style="fill:#f8f8f8; stroke:none;" d="M79 58L79.25 59.4444L79.5833 60.5556L80 62L77.9444 62L76.9444 62.0278L75.0278 62.3333L73.25 63.3333L71.9444 65.0278L71.5 66L71.25 66.9444L71.0278 68.5L71 70L72.5 70.5278L73.0556 70.8889L74.0556 71.4167L75.9722 72.6944L76.8889 73.3611L77.6944 74.1667L78.2222 74.5833L79 76L77 75L76 76L76.7778 77.4722L77.3056 77.9722L78.1111 78.8333L79.8889 80.3333L80.6944 81.1667L81.2222 81.5833L82 83L80.5 82.3333L78.9444 81.5833L77 80.7778L76.0278 80.3056L74.2222 78.8889L72.6389 77L71.8611 76L71.1389 75L69.6111 73.0278L67.9167 71.3333L66.9722 70.7222L66.0556 70.3333L64.5 70.0278L63 70L62 72L61 72L61 74.0556L60.9722 75.0556L60.9167 76L60.6111 78L60.3889 79L60.0833 81L60 83L60 84L60 87L60 96L60 122L61 123L73 123L77 123L79 123.028L80 123.083L82 123.389L83 123.611L85 123.917L85.9444 123.972L86.9444 124L89 124L90 123L90 105L90 98L90 96L89.9722 94L89.9167 93L89.6111 91.0556L89.25 89.5L89 88L87.5 87.2222L86.9722 86.6944L86.0556 85.9444L84.7778 84.5L84 83L85 82L87 82L87.7778 83.1389L88.25 83.3333L89.5278 83.8889L91 84L91 77L91 75L91 74L90.9444 72L90.8611 71L90.7778 69L90.8056 67.0278L90.8056 65.2222L90.7778 64.3889L90.8611 62.7778L90.9444 61.9167L90.9167 60L90.7778 59.0556L90.5833 58.0556L90 56L86.9444 56L86 56L84 56.0278L83 56.1111L82.0556 56.2778L80.5 56.8611L79 58M30 58L30.1667 60.0556L30.2222 61.0556L30.1667 62L30.1389 63L30.0556 64L30.0278 65L30.0833 67L30.3889 69L30.6111 70L30.9167 72L30.9722 73L31.0556 75L31.1944 77L31.3889 79L31.6667 81L31.9167 83L32 85L32 86L32 88L32 96L34 96L34 92L34 90L34 88L34.0833 86L34.2222 85L34.4167 84L35 82L35.5833 80L35.9167 78L35.9722 77L36 75L35.9722 73L35.9167 72L35.6111 70L35.3889 69L35.1667 67L35.3889 65L35.7222 63.0278L35.8056 61.2222L35.7778 60.4444L35.8333 59.25L36 58L34.5 57.3056L33.9444 57.3333L33 57.2778L32.0556 57.4444L30 58M215 58L215.778 58.7222L216.278 58.7222L217 58.8333L218.278 58.3333L218.639 58.1389L219 57L217 57.25L216.444 57.2778L215 58z"/>
<path style="fill:#303030; stroke:none;" d="M156 71L156 73L158 74.1667L158.556 74.5278L160 75L161.472 72.9444L163.083 71L164.028 70L165.972 68.0833L166.889 67.2222L168.278 65.6667L168.889 64.4167L169 63L167.5 63.1111L165.944 63.7222L165 64.3056L163 65.8056L162 66.6111L160 68.1389L159.056 68.8056L158.056 69.5556L156 71z"/>
<path style="fill:#f8f8f8; stroke:none;" d="M10 73L12 73L12 75L10.9167 75.75L10.8056 76.2222L10.4444 76.8889L10.2778 78.3889L10.3333 79.2222L10.4167 81.0278L10.3889 82L10.1944 84L10.0833 85L10 87L10 88L10 89L10 92L10 99L10 122L12.0556 122.583L13.0556 122.778L14 122.917L16 123L17 123L18 123L20 122.917L20.9444 122.778L21.9444 122.583L24 122L24.0278 119.944L24.0833 118.944L24.3889 117L24.6111 116L24.8611 114.028L24.8333 112.222L24.7778 111.389L24.8611 109.778L24.9444 108.917L25 107L25 106L25 103L25 96L25 65L24 64L22.5 64.0278L20.9444 64.25L20 64.4722L18 65.2778L17 65.8333L15 67.0278L13.0278 68.4167L11.3333 70.0278L10.3611 71.5L10 73M52 64L52 79L52 84L52 86L51.9167 88L51.6944 90L51.6111 91L51.6111 92L51.6944 93L51.9167 95L51.9722 96L52 97L52 98L52 100L52 106L52 111L52 113L52 115L52.0278 116L52.1111 116.972L52.6667 118.667L53.6111 119.639L55 120L55 116.944L55 115L54.9722 114L54.9444 113.028L54.8333 111.222L54.75 110.389L54.7778 109.611L54.7222 108.778L54.7778 107.917L54.75 106.972L54.8611 105L54.9444 104L54.9722 102L54.9167 101L54.6111 99L54.3056 97L54.3889 95L54.5556 94L54.6389 93L54.7222 92L54.6667 91L54.6111 90L54.3333 88L54.0833 86L54.0556 85L54.0833 84L54.3611 82L54.5556 81.0278L54.75 79.2222L54.75 78.3889L54.8611 76.7778L54.9444 75.9167L55 74L55 73L55 71L55 64L52 64z"/>
<path style="fill:#303030; stroke:none;" d="M173 64L173 66L175.056 65.9167L177 65.6111L178.944 65.2222L179.944 65.0833L182 65L181.222 64.2778L180.694 64.25L179.889 64.0556L178.972 64.0278L177 64L176.056 64L173 64M115 67L115.361 68.3889L116.278 69.3333L116.611 69.6389L118 70L117.639 68.6111L117.333 68.2778L116.389 67.3611L115 67M138.667 67.3333L139 67.6667L139.333 67.6667L139 67.3333L138.667 67.3333M153 67L153 69L156 69L156 67L153 67M104 68L104 70L108 70L108 68L104 68M176 68L176 70L177 71L179 71L180 70L180 68L176 68M182 73L184 73L185 72L184.639 73.4167L183.667 74.5833L181.972 75.75L181 76.25L179 77.4444L177 78.8333L176 79.5556L174.028 80.75L173.083 81.25L171.389 82.4444L169.833 83.7778L169.417 84.25L168 85L167.889 83.6111L167.278 82.6944L166.722 82.3889L165.472 82.3056L164 83L164.778 84.4722L166.111 85.7222L168 86.5833L169 86.6389L171 86.0833L172 85.5833L174 84.3889L176 83.25L177 82.75L179 81.6389L180 81.0556L182 80.0833L183 79.6944L185 78.9167L187 78L188 77.5278L189 77.0833L189.944 76.7222L191.5 76.25L193 76L192.694 74.5556L192.333 74L191 72L193.056 72.0278L194.056 72.0833L196 72.3889L196.944 72.6111L197.944 72.7778L198.5 72.9167L200 73L199.222 71.5833L198.694 71.1667L197.889 70.3611L196 69.1111L195 68.6389L193 68.2222L191 68.7222L190.056 69.2778L188.5 70.5278L187 72L186 71L188 69L188 68L186.5 68.1111L184.972 68.7222L183.333 70.0556L182.361 71.5L182 73z"/>
<path style="fill:#f8f8f8; stroke:none;" d="M278 71L277.417 73.0556L277.222 74.0556L277.083 75L277 77L277 78L277 80L277 89L277 98L277 100L277 101L277.028 103L277.083 104L277.389 106L277.611 107L277.917 109L277.972 110L278 112L278 113L278 115L278.028 117L278.083 118L278.389 119.944L278.75 121.5L279 123L280.5 123.25L281.056 123.389L283 123.694L285 123.583L286 123.389L288 123.083L289 123.028L290.944 123L291.944 123L294 123L294.028 120.944L294.083 119.944L294.389 118L294.611 117L294.917 115L294.972 114L295 112L295 110L295.083 108L295.222 107.056L295.417 106.056L296 104L295 103L293 103L292 104L292 106L290.5 105.75L288.944 105.389L287 105.083L286 105.028L284 104.889L283.028 104.667L281.333 103.722L280.361 102.472L280 101L294 101L294.444 99.5L294.667 98.9444L295.306 97L295.583 96L295.778 95L295.917 94L296 92L296 91L296 90L296 87L296 74L292.944 74L291 74L290 74.0278L289.056 74.0556L288.056 74.25L287.5 74.2778L286 75L286.778 76.1389L287.306 76.3333L288.111 76.7222L288.972 76.8889L290.5 77L292 77L292 79L289.944 79L288.944 79L287 79.0278L286 79.0833L284 79.3889L283.056 79.6111L282.056 79.7778L281.5 79.9167L280 80L280 74L284 74L284 72L283 71L278 71z"/>
<path style="fill:#303030; stroke:none;" d="M164 73L164.778 73.7222L165.306 73.75L166.111 73.9444L166.972 73.9722L167.944 74L170 74L170 72L167.944 72.0278L167 72.0556L166.056 72.25L165.5 72.2778L164 73M126 73L125.722 74.5L125.167 76L124.806 76.9444L124.5 77.5L124 79L126.056 79.5833L128 79.8889L129.944 79.75L130.5 79.7222L132 79L131.222 77.5L130.694 76.9444L129.889 75.9722L128.056 74.3056L127.5 73.7778L126 73M99.6667 74.3333L99.6667 74.6667L100.333 74.6667L100.333 74.3333L99.6667 74.3333M109 76L110.75 75.3333L111.278 75.1389L112 74L110.611 74.1111L109.667 74.6667L109.361 74.8611L109 76M134 75L134 78L135.5 78L137.056 78.0833L138.944 78.3333L139.944 78.3611L140.5 78.4722L142 78L141.222 76.8333L140.694 76.5833L139.889 76.0556L138 75.4167L137.056 75.2222L135.5 75.0278L134 75M144 76L144 78L146 79L147 79L148 78L148 76L147 75L145 75L144 76M152 76L152.361 77.1389L153.278 77.7222L154.528 77.9722L156 78L155.222 77.0278L154.75 76.8611L153.472 76.2778L152 76M160 78L160.778 79.1389L162.111 79.7222L164 79.8889L166 79.6111L168 79.2222L170 79L170.944 78.9444L171.944 78.75L172.5 78.7222L174 78L173.222 77.2778L172.694 77.25L171.889 77.0556L170.972 77.0278L170 77L168 77L166 77L165 77L164 77.0278L163.056 77.0556L162.056 77.25L161.5 77.2778L160 78M99 79L99.25 81L99.2778 81.5556L100 83L103.056 83L104 83L106 83.0278L107 83.0833L108.944 83.3889L110.5 83.75L112 84L113 83L113 81L111.5 80.2778L110.944 80.25L109.944 80.0556L109 80.0278L107 79.9167L105 79.6111L104 79.3889L102.056 79.0833L101.056 79.0278L99 79M223 80L223.722 81.1389L224.25 81.3333L226 82L226 79L224 79L223 80z"/>
<path style="fill:#f8f8f8; stroke:none;" d="M302 79L300.917 80.4167L299.778 81.5833L299.417 81.9167L298 83L298.083 84.5L298.222 85.0556L298.389 86.0556L298.778 88L298.917 89L299.083 91L299.222 92L299.611 94L299.75 95L299.833 96L299.611 98L299.389 99L299.083 101L299.028 102L299 104L299 105.944L299 109L301 109L301 96L303 96L303 98.0556L303 99.0556L302.917 101L302.667 103L302.389 105L302.194 107L302.056 109L302.028 110L301.917 112L301.778 113L301.361 115L301.139 116L300.861 117L300.639 117.944L300.25 119.5L300 121L301.5 121.722L302 121.75L303 121.944L305 122L305.083 120.5L305.222 119.944L305.611 118L305.917 116L305.972 115L306 113L306 110L306 106L306 104L305.944 102L305.861 101L305.778 99L305.861 97L305.944 96L306 94L306 93L306 91L306 89L305.972 87L305.917 86L305.611 84L305.222 82.0556L305.028 80.5L305 79L302 79z"/>
<path style="fill:#303030; stroke:none;" d="M116 80L116.333 81.8056L116.722 82.5556L118.111 83.5L120 83.9167L122 84L124 84L125 84L127 83.9167L127.944 83.7778L128.944 83.5833L131 83L131.778 84.5L132.306 85.0556L133.111 86.0556L134.028 87L136 89L137 90L139 92L140 93L140.972 94L142.778 95.9167L143.611 96.75L144.389 97.5278L146.083 98.7222L147.028 99.1389L148 99.5278L149 99.75L150 99.9167L152 100L154 100L156 100L160 100L162 100L163 100L165 100.083L167 100.5L168.889 101.444L170.222 102.583L171 104L174.056 104L176 104L178 104.028L179 104.083L181 104.389L182 104.611L184 104.917L186 105L188 104.944L189 104.861L191 104.75L192 104.75L194 104.556L195 104.361L197 104.083L198 104.028L200 104L200.944 104L204 104L204 99L201.944 98.4722L200 98.25L199 98.25L198 98.1667L197.056 98.1389L195.5 98.0278L194 98L192.917 99.4167L192.528 99.8056L190.917 101.056L189.972 101.5L188 101.917L186 102L184 102L182 102L181 101.972L180 101.917L178 101.667L177 101.528L176 101.361L175 101.222L173.056 100.722L172.5 100.472L171 100L171 95L168.944 94.9722L167.944 94.9167L166.056 94.5833L164 94L161.944 95.7222L160.944 96.3333L159 96.8889L158 96.9722L157 97L156 97L154 97L146 97L145.639 95.5L145.306 94.9444L144.75 93.9444L143.361 92L142.611 91L140.944 89L140.056 88.0278L138.389 86.2222L136.778 84.6389L135.917 83.8889L134 82.6944L133 82.3056L131 81.8056L129 81.3889L127 81.0833L125 80.9167L123 80.6111L122 80.3889L120 80.0833L119.056 80.0278L118.056 80L116 80M259 82L259.083 83.5L259.222 84.0556L259.389 85L259.75 86.5L260 88L268 88L268.417 86.5556L268.75 85.4444L269 84L267.5 83.75L266.944 83.6111L265 83.2222L263 82.9444L261.056 82.5833L259 82M280 84L280 86.0556L280 87.0556L280.083 89L280.222 89.9444L280.417 90.9444L281 93L285 93L285.111 90.9444L285.333 89.9444L286.333 88.1389L288.028 86.9444L289 86.7222L290.944 86.8056L291.5 86.9167L293 87L292.75 85.5556L292.417 84.4444L292 83L288.944 83L288 83L286 83.0278L285 83.0833L283.056 83.3889L281.5 83.75L280 84z"/>
<path style="fill:#f8f8f8; stroke:none;" d="M312 84L312 90L312 92L312 93L312.056 95L312.167 97L312.222 98L312.167 99L312.056 101L312 103L312 105L312 110L312 123L338 123L338 97L336.5 96.9722L334.944 96.7778L333 96.4722L331.111 96.5833L329.722 97.4444L329.333 98.1944L329 100L321 100L320.75 98.5L320.611 98L320.25 96.5L320 95L321.5 94.9722L323.056 94.7778L325 94.3889L327 94.0833L328 94.0278L330 94L332 94L333 94L334 93.9722L334.944 93.9444L335.944 93.75L336.5 93.7222L338 93L337.917 91.5L337.778 91L337.583 90L337 88L335.5 87.9167L334.944 87.8056L333 87.6111L332 87.6111L331 87.6944L330 87.8056L328 87.8889L326 87.6111L325.056 87.3889L324.056 87.2222L323.5 87.0833L322 87L323 85L322 84L320.5 83.75L318.944 83.4722L318 83.4444L317 83.4722L316 83.6389L314.056 83.9167L312 84z"/>
<path style="fill:#303030; stroke:none;" d="M141 85L141.722 85.7222L142.25 85.75L144 86L143.278 85.2778L142.75 85.25L141 85M102 86L102 88L104 88L104 86L102 86M144 88L144.667 89.75L144.861 90.2778L146 91L145.333 89.25L145.139 88.7222L144 88z"/>
<path style="fill:#f8f8f8; stroke:none;" d="M342 89L342 94L343 95L345.056 94.9722L346.056 94.9167L347.944 94.5833L350 94L349.667 91.9722L349.278 91.0556L347.889 89.7222L346 89.1111L345.056 89.0278L344.056 89L342 89z"/>
<path style="fill:#303030; stroke:none;" d="M250 90L250 93L256 93L258 93L259 93.0278L260 93.0833L262 93.3889L263 93.6111L264.944 93.9167L265.944 93.9722L268 94L268 91L266.5 90.9167L265.944 90.7778L264.944 90.6111L264 90.3889L262 90.0833L261 90.0278L259 90L257 90L250 90M134 92L133.222 93.1389L132.694 93.3333L131.889 93.7222L131.028 93.8889L129.5 94L128 94L128.778 95.4167L129.306 95.8333L130.111 96.6667L130.972 97.3333L132.5 98.5833L134 100L135.417 99.2222L135.833 98.7222L137.333 97.2778L137.75 96.7778L139 96L138.472 94.5833L138.139 94.2222L137.556 93.4167L136 92L134 92M236 92L235 93L235 98L242 98L243 97L243 92L236 92M112 93L112.361 94.2222L112.722 94.5833L114.111 95.8333L115.028 96.4444L117 97.8611L118 98.6111L120 100L121 100.667L122 101.333L124 102.667L131 107.333L134 109.333L135 110L137 111.417L137.944 112.167L139.5 113.528L141 115L138.944 114.917L137.056 114.611L135.5 114.25L134 114L134.361 115.167L134.722 115.417L135.333 115.944L137.028 116.583L137.972 116.75L138.917 116.806L139.722 116.694L140.917 116.139L142 115L142.778 116.111L144.056 116.472L144.528 116.611L146 116L145.222 114.75L144.694 114.333L143.889 113.583L142 112.167L141 111.444L140 110.833L138 109.528L137 108.778L135 107.222L134 106.472L132 105.167L131 104.556L129 103.139L128 102.389L127 101.694L126 101L124 99.5833L123 98.8056L121 97.1944L120 96.4167L119 95.6944L117 94.4167L115.056 93.5L113.5 93.0833L112 93M224 93L224.778 94.1389L225.25 94.3333L226.528 94.8889L228 95L227.639 93.8611L226.722 93.2778L225.472 93.0278L224 93M316 94L315.278 95.5L315.25 96L315.056 97L315 99L316.389 98.6389L317.306 97.6667L317.611 96.0833L317.139 94.7778L316 94M281 96L281 98L283 98L283 96L281 96M214 98L214 102L212.611 102.528L212.278 102.861L211.361 103.778L211 105L227 105L227.083 103.5L227.222 102.944L227.611 101L227.917 99.0556L228 97L226.5 97.25L225.944 97.4167L224.972 97.6667L224.083 97.9167L222.389 98.1944L221.611 98.1667L219.917 98.0556L218 98L217.056 98L214 98z"/>
<path style="fill:#f8f8f8; stroke:none;" d="M344 99L344 114L344 116L344 117L344 118L344.111 119.972L344.333 120.889L344.722 121.667L346.056 122.667L346.528 122.889L348 123L348 118L349.028 119.722L349.611 120.333L349.833 120.639L351 121L351.083 119.5L351.222 118.944L351.389 117.944L351.611 117L351.889 115L351.861 113L351.778 111L351.806 110L351.722 108L351.583 107L351.222 105L351.083 104L350.917 102L350.556 100.056L349.972 98.5L349 97L347.5 97.2778L346 97.8611L345.5 98.0278L344 99z"/>
<path style="fill:#303030; stroke:none;" d="M260 101L261.5 101.667L262.056 101.611L263.056 101.778L264 101.75L265.944 101.861L266.5 101.944L268 102L267.667 100.278L267.278 99.6667L265.889 99.1111L264 99.0833L262.111 99.4444L261.306 99.8611L260.778 100.028L260 101M253 105L253.778 105.722L254.306 105.75L255.111 105.944L256.028 105.972L257 106L259 106L261 106L262 106L264 105.917L265.889 105.556L266.694 105.139L267.222 104.972L268 104L266.5 103.278L265.944 103.25L264.944 103.056L263 103L262 103.028L261 103.083L259 103.389L258 103.611L256.056 103.972L255.056 104.222L254.5 104.278L253 105M99 104L99 106L102 106L102 104L99 104M315 104L315 108L317 108L317 104L315 104M323 104L323.778 105.111L325.056 105.472L325.528 105.611L327 105L326.222 104.278L325.75 104.25L324.944 104.056L323 104M145 106L145.361 107.389L146.278 108.333L147.528 108.889L149 109L148.222 107.611L147.75 107.278L146.472 106.361L145 106M321 106L321 108L323 108L323 106L321 106M157.667 108.333L158 108.667L158.333 108.667L158 108.333L157.667 108.333M100.333 112.667L100.333 113.333L100.667 113.333L100.667 112.667L100.333 112.667M77 114L77.0556 116L77.25 117L77.2778 117.5L78 119L79.8333 118.833L80.6111 118.778L81.3333 118.833L83 119L83.25 117.5L83.6111 116L83.75 115.5L84 114L77 114M41 115L40 116L40 118L41.3889 117.889L41.7222 117.667L42.3333 117.333L42.8889 116.389L43 115L41 115M72 115L71.2778 116.444L71.25 117L71 119L73 118.75L73.5556 118.722L75 118L74.2778 116.611L73.75 116.25L72 115M237.333 119.667L237.333 120.333L237.667 120.333L237.667 120L237.333 119.667M122 120L122 122L124 122L124 120L122 120M241.667 120.333L241.667 120.667L242.333 120.667L242 120.333L241.667 120.333z"/>
<path style="fill:#f8f8f8; stroke:none;" d="M277 128L279 127.75L279.556 127.722L281 127L280 125L279 125L277.861 125.722L277.667 126.25L277 128M302 128L303.472 127.972L304.722 127.667L305.278 127.333L305.889 126.389L306 125L304.528 125.111L303.278 125.667L302.361 126.611L302 128M86 129L90 129L90 127L89 126L87.6111 126.361L87.2778 126.667L86.3611 127.611L86 129M121 127L121.778 127.694L122.25 127.694L123.528 127.694L125 127L124.222 126.306L123.75 126.306L122.472 126.306L121 127M178 129L184 129L183.639 127.778L182.667 126.889L181.889 126.528L181 126.361L180.111 126.417L179.333 126.694L178.361 127.611L178 129M214 127L214.778 127.972L215.306 128.139L216.111 128.528L217.944 128.667L218.5 128.694L220 128L219.222 126.861L218.694 126.667L217.028 126.167L216.056 126.278L215.5 126.278L214 127M223 126L223.778 127.139L224.306 127.333L225.056 127.722L226.5 127.972L228 128L228 126L223 126M234 126L233.583 127.444L233.25 128.556L233 130L248 130L248 128L245.944 128L244.944 127.972L243.111 127.722L242.306 127.333L241.778 127.139L241 126L239.25 126.667L238.722 126.861L238 128L236 126L234 126M107 128L107.778 129.139L108.306 129.333L109.111 129.722L111 129.972L113 130L115 130L120 130L119.639 128.778L118.667 127.889L117.889 127.5L116 127.083L114 127L113 127L111 127.028L110.056 127.056L109.056 127.25L108.5 127.278L107 128M252 127L252.778 128.111L254.056 128.472L254.528 128.611L256 128L255.222 127.278L254.75 127.25L253.944 127.056L252 127M263 128L263 130L267 130L267 128L263 128M290 129L290.778 130.139L292.056 130.667L292.972 130.639L293.5 130.694L295 130L294.222 128.861L292.944 128.333L292.028 128.361L291.5 128.306L290 129M362 128L363 129L362 128M144 132L145.472 131.722L146.722 131.111L147.639 130.222L148 129L146.528 129.111L145.278 129.667L144.361 130.611L144 132M131 131L131.778 132.139L132.306 132.333L133.111 132.722L135 132.972L136.972 132.889L137.889 132.722L138.694 132.333L139.222 132.139L140 131L138.583 130.444L138.167 130.417L136.611 130.194L134.917 130.083L134.028 130.083L133.056 130.25L132.5 130.278L131 131M152 130L152 132L163 132L163 130L152 130M168 130L169 131L168 130M9 136L9.33333 137.75L9.72222 138.417L10.3333 138.889L12.0278 139.583L14 139.917L16 140L18 140L20 139.972L20.9444 139.944L21.9444 139.75L22.5 139.722L24 139L24 137L23 136L9 136M30 136L30 140L32.0556 140L33.0556 140L35 139.917L36 139.806L38 139.611L39 139.611L41 139.778L41.9444 139.861L42.9444 139.722L43.5 139.722L45 139L44.2222 137.833L43.6944 137.583L42.8889 137.056L41 136.417L39 136.083L37 136L36 136L34 136L30 136M51 136L51 141L56 141L56 137L54 136.417L53 136.222L52.5 136.083L51 136M328.333 136.667L328.333 137.333L328.667 137.333L328.667 136.667L328.333 136.667M62 138L62 140L63 141L79 141L82 141L84 141L86 140.972L86.9444 140.944L87.9444 140.75L88.5 140.722L90 140L89.2222 138.611L87.8889 137.694L87 137.389L86.0833 137.25L84.3889 137.222L82.7778 137.139L81.9167 137.056L80 137L79 137L77 137L72 137L69 137L67 137L66 137.028L65.0556 137.056L64.0556 137.25L63.5 137.278L62 138M97 140L97 142L98 143L182 143L194 143L198 143L200 143.028L201 143.083L203 143.389L204 143.611L206 143.889L207 143.889L209 143.611L210 143.389L212 143.111L213 143.111L215 143.389L217 143.694L219 143.583L221 143.222L223 143.028L225 143L226 143L232 143L235 143L237 143L239 143.028L240 143.083L242 143.389L243 143.583L244 143.722L246 143.806L247 143.778L248 143.806L250 143.722L252 143.389L254 143.083L256 143L258 143L262 143L264 143L266 142.972L266.944 142.944L267.944 142.75L268.5 142.722L270 142L270 140L269 139L261 139L259 139L257 139.028L256 139.083L254 139.389L252 139.778L251 139.917L249 140L247 140L242 140L238 140L237 140L235 139.972L234 139.917L232 139.694L231 139.611L230 139.611L229 139.694L227 139.917L225 140L224 140L222 140L215 140L194 140L183 140L179 140L177 139.972L176 139.917L174 139.611L173 139.389L171 139.111L169 139.194L168 139.306L167 139.389L166 139.389L165 139.306L163 139.083L161 139L159 139.028L158 139.056L157 139.139L155 139.222L153 139.194L151 139.194L150 139.222L148 139.139L147 139.056L145 139L143 139L138 139L135 139L133 139L131 139.083L129 139.361L128 139.528L126 139.528L125 139.361L123 139.083L122 139.028L120 139L117 139L113 139L111 139L109.028 139.056L107.222 139.167L106.389 139.222L104.778 139.139L103.917 139.056L102 139L101 139.028L100.056 139.056L99.0556 139.25L98.5 139.278L97 140M278 140L278 144L284 144L286 144L287 143.972L288 143.917L289.944 143.611L291.5 143.25L293 143L293 141L292 140L278 140M299 140L299 144L301.056 144L302.056 143.972L302.972 143.889L303.889 143.667L305.278 142.722L305.667 141.944L306 140L299 140M311 141L311.25 143L311.278 143.556L312 145L323 145L326 145L328 145L330 145.083L331 145.194L333 145.389L334.944 145.306L337 145L336.75 143L336.722 142.444L336 141L334.5 141.056L333.944 141.139L332 141.222L331 141.194L329 141.194L327 141.222L325 141.139L324 141.056L322 141L321 141L318 141L311 141M343 142L343 146L346.056 146L347 146L349 145.917L350.972 145.5L352.667 144.556L353.639 143.417L354 142L343 142M65 144L63.8611 145.5L63.2778 147.056L63.0278 148.944L63 149.944L63 152L72 152L74 152L76 152.028L77 152.083L79 152.389L81 152.778L82 152.917L84 153L85 152.972L86.9722 152.667L88.6667 151.667L89.5833 149.972L89.6389 149L89.1389 147.056L88.9722 146.5L88 145L77 145L74 145L73 145L71 144.972L70 144.917L68.0556 144.611L66.5 144.25L65 144M10 148L10.7778 149.139L12.1111 149.722L13.0278 149.889L15 150.028L16 150.083L18 150.389L19 150.583L20 150.694L21.9444 150.528L22.9444 150.139L25 149L24.2222 147.833L23.6944 147.583L22.8889 147.056L21 146.417L19 146.083L17 146.083L15 146.389L14 146.639L13.0556 146.833L12.0556 147.167L11.5 147.25L10 148M32 147L32.7778 148.389L34.1111 149.333L36 149.889L37 149.972L38 150L40 150L42 150L47 150L46.2222 148.583L45.75 148.222L44.9444 147.417L43 146L40.9444 146.222L39.9444 146.25L38 146.444L37 146.639L35.0556 146.917L33.5 147L32 147M100 146L99 147L98 149L98.5833 151.056L98.9167 152.944L99 155L100 156L127 156L135 156L138 156L140 156.028L142 156.306L143 156.611L145 157.389L146 157.694L148 157.972L150 158L152 157.917L154 157.611L155 157.389L157 157.083L158 157.028L160 157L163 157L172 157L175 157L177 157L179 156.917L181 156.611L182 156.389L184 156.083L185 156.028L187 156L191 156L201 156L203 156L204 156L206 155.917L208 155.639L209 155.472L211 155.472L212 155.639L214 155.917L215 155.972L216 156L218 156L221 156L231 156L242 156L245 156L247 156L248 155.972L249 155.917L251 155.694L252 155.611L253 155.611L254 155.694L256 155.917L258 156.083L260 156.389L261 156.611L263 156.917L265 156.917L266 156.778L267.944 156.333L268.944 155.972L269.5 155.806L271 155L271 153.5L270.889 151.944L270.722 151.056L270.139 149.5L269 148L267.333 148.194L265.778 148.139L264.917 148.056L263 148L262 148L259 148L252 148L237 148L232 148L231 148L229 147.972L228 147.917L226 147.611L225 147.389L223 147.167L222 147.222L220 147.389L219 147.389L217 147.222L216 147.167L214 147.306L212 147.417L211 147.389L209 147.472L208 147.639L206 147.917L205 147.972L203 148L202 148L200 147.917L198 147.639L197 147.444L195 147.25L194 147.25L193 147.167L192 147.139L191 147.056L189 147L188 147L185 147L176 147L150 147L141 147L138 147L137 147L135 146.917L133 146.611L132 146.389L130 146.083L129 146.028L127 146L125 146L119 146L100 146M51 148L51 150L52 151L56 151L55.75 149L55.7222 148.444L55 147L53 147.25L52.4444 147.278L51 148M278 149L278.028 150.5L278.139 151.972L278.194 153.528L278 155L279.5 155.722L280.056 155.75L281.056 155.917L282.917 155.861L283.778 155.833L284.611 155.778L286.222 155.861L287.083 155.944L289 156L290.944 156L294 156L295 155L295 150L292.944 149.417L291.944 149.222L291 149.083L289 149L288 149L286 149L278 149M313 150L313 153L314.5 153.083L315.056 153.194L317 153.389L318 153.389L319 153.306L321 153.167L323 153.389L324 153.611L326 153.917L327 153.972L328 154L330 154L332 153.972L333 153.917L334.944 153.611L336.5 153.25L338 153L338 151L337 150L333 150L331 150L329 149.917L328 149.778L326 149.472L325 149.444L324 149.472L322 149.778L321 149.917L319 150L317 150L313 150M340 149L341 150L340 149M299 154L306 154L305.667 152.194L305.278 151.444L303.889 150.5L302.028 150.194L301.111 150.361L300.333 150.722L299.722 151.278L299.333 152.056L299 154M343 154L346.056 154L347 154L348 153.972L348.972 153.889L350.667 153.333L351.639 152.389L352 151L350.5 150.75L348.944 150.389L347 150.111L345.111 150.333L343.722 151.278L343.333 152.056L343 154z"/>
<path style="fill:#303030; stroke:none;" d="M109 152L109.778 152.722L110.306 152.75L111.111 152.944L112.028 152.972L114 153L114.944 153L118 153L117.222 152.278L116.694 152.25L115.889 152.056L114.972 152.028L113 152L112.056 152L109 152M126.667 152.333L126.667 152.667L127.333 152.667L127 152.333L126.667 152.333z"/>
<path style="fill:#f8f8f8; stroke:none;" d="M14 154L14.0833 155.5L14.2222 156.056L14.3889 157.056L14.6111 158L14.9167 160L14.9722 161L15 163L15.0556 164.944L15.25 165.944L15.2778 166.5L16 168L17.25 167.25L17.6667 166.778L19.2222 165.556L20.0833 165.139L22 164.639L23.9444 164.333L24.5 164.222L26 164L26.0833 161.944L26.2222 160.944L26.5833 159L26.6944 158L26.6944 157.056L26.5556 156.056L26 154L23.9444 154L22.9444 154L21 153.917L19 153.694L17.0556 153.611L15.5 153.778L14 154z"/>
<path style="fill:#303030; stroke:none;" d="M163 153L163.778 153.972L164.306 154.139L165.111 154.556L167 154.917L168 154.972L170 154.917L172 154.611L173 154.389L175 154.083L176 154.028L178 154L179.944 154L183 154L182.222 153.278L181.694 153.25L180.889 153.056L179.972 153.028L179 153L178 153L176 153L163 153M19 156L18 157L18 163L19.5 162.917L21 162.556L21.9444 162.139L22.5 161.972L24 161L24 157L23 156L19 156z"/>
<path style="fill:#f8f8f8; stroke:none;" d="M52 160L52.0278 162.056L52.0556 163L52.25 163.944L52.2778 164.5L53 166L53.7222 165.222L53.75 164.694L53.9444 163.889L53.9722 163.028L54 162.056L54 160L52 160M31 164L31 166L48 166L48 164L31 164M100 170L101 171L100 170M9 172L9.25 174L9.27778 174.556L10 176L35 176L43 176L46 176L48 176.028L49 176.083L51 176.389L53 176.694L55 176.611L56 176.472L57 176.444L59 176.611L61 176.694L63 176.389L65 176.167L67 176.389L68 176.611L70 176.917L72 177L73 177L76 177L85 177L112 177L192 177L283 177L314 177L324 177L327 177L329 177L331 177.083L333 177.361L333.972 177.556L335.778 177.75L336.611 177.75L338.222 177.861L339.083 177.944L340.028 177.972L341 178L342 178L345 178L353 178L353 173L341 173L337 173L335 173L334 172.972L333 172.917L332 172.806L330 172.611L329 172.611L327 172.722L326 172.694L324 172.417L323 172.278L321 172.194L320 172.222L318 172.139L317 172.056L315 172L314 172L311 172L304 172L281 172L213 172L9 172M0 176L1 177L0 176z"/>
</svg>
